<mxfile host="app.diagrams.net" modified="2022-03-28T21:39:04.853Z" agent="5.0 (Windows)" etag="Jr0oVUKwUKOiIFmrfe4P" version="17.2.4" type="github">
  <diagram id="v_UT5ONxILLp7DP1ufac" name="Page-1">
    <mxGraphModel dx="1038" dy="528" grid="1" gridSize="10" guides="1" tooltips="1" connect="1" arrows="1" fold="1" page="1" pageScale="1" pageWidth="850" pageHeight="1100" math="0" shadow="0">
      <root>
        <mxCell id="0" />
        <mxCell id="1" parent="0" />
        <mxCell id="TSRgYdOGHJH9xsKmJ_30-1" value="main" style="rounded=0;whiteSpace=wrap;html=1;" vertex="1" parent="1">
          <mxGeometry x="80" y="40" width="120" height="60" as="geometry" />
        </mxCell>
        <mxCell id="TSRgYdOGHJH9xsKmJ_30-2" value="" style="endArrow=classic;html=1;rounded=0;" edge="1" parent="1" target="TSRgYdOGHJH9xsKmJ_30-3">
          <mxGeometry width="50" height="50" relative="1" as="geometry">
            <mxPoint x="140" y="100" as="sourcePoint" />
            <mxPoint x="240" y="150" as="targetPoint" />
            <Array as="points">
              <mxPoint x="140" y="150" />
            </Array>
          </mxGeometry>
        </mxCell>
        <mxCell id="TSRgYdOGHJH9xsKmJ_30-3" value="choose(4, 3)" style="rounded=0;whiteSpace=wrap;html=1;" vertex="1" parent="1">
          <mxGeometry x="180" y="120" width="120" height="60" as="geometry" />
        </mxCell>
        <mxCell id="TSRgYdOGHJH9xsKmJ_30-4" value="n=4, k=3" style="text;html=1;strokeColor=none;fillColor=none;align=center;verticalAlign=middle;whiteSpace=wrap;rounded=0;" vertex="1" parent="1">
          <mxGeometry x="80" y="130" width="60" height="30" as="geometry" />
        </mxCell>
        <mxCell id="TSRgYdOGHJH9xsKmJ_30-5" value="choose(3,2)" style="rounded=0;whiteSpace=wrap;html=1;" vertex="1" parent="1">
          <mxGeometry x="365" y="200" width="120" height="60" as="geometry" />
        </mxCell>
        <mxCell id="TSRgYdOGHJH9xsKmJ_30-6" value="" style="endArrow=classic;html=1;rounded=0;entryX=0;entryY=0.5;entryDx=0;entryDy=0;exitX=0.75;exitY=1;exitDx=0;exitDy=0;" edge="1" parent="1" source="TSRgYdOGHJH9xsKmJ_30-3" target="TSRgYdOGHJH9xsKmJ_30-5">
          <mxGeometry width="50" height="50" relative="1" as="geometry">
            <mxPoint x="240" y="180" as="sourcePoint" />
            <mxPoint x="280" y="230" as="targetPoint" />
            <Array as="points">
              <mxPoint x="270" y="230" />
            </Array>
          </mxGeometry>
        </mxCell>
        <mxCell id="TSRgYdOGHJH9xsKmJ_30-7" value="n=3, k=2" style="text;html=1;strokeColor=none;fillColor=none;align=center;verticalAlign=middle;whiteSpace=wrap;rounded=0;" vertex="1" parent="1">
          <mxGeometry x="300" y="230" width="60" height="30" as="geometry" />
        </mxCell>
        <mxCell id="TSRgYdOGHJH9xsKmJ_30-8" value="choose(3,3)" style="rounded=0;whiteSpace=wrap;html=1;" vertex="1" parent="1">
          <mxGeometry x="220" y="310" width="120" height="60" as="geometry" />
        </mxCell>
        <mxCell id="TSRgYdOGHJH9xsKmJ_30-9" value="n=3, k=3" style="text;html=1;strokeColor=none;fillColor=none;align=center;verticalAlign=middle;whiteSpace=wrap;rounded=0;" vertex="1" parent="1">
          <mxGeometry x="120" y="325" width="60" height="30" as="geometry" />
        </mxCell>
        <mxCell id="TSRgYdOGHJH9xsKmJ_30-10" value="" style="endArrow=classic;html=1;rounded=0;exitX=0.75;exitY=1;exitDx=0;exitDy=0;entryX=0;entryY=0.5;entryDx=0;entryDy=0;" edge="1" parent="1" target="TSRgYdOGHJH9xsKmJ_30-8">
          <mxGeometry width="50" height="50" relative="1" as="geometry">
            <mxPoint x="200" y="180" as="sourcePoint" />
            <mxPoint x="210" y="320" as="targetPoint" />
            <Array as="points">
              <mxPoint x="190" y="340" />
            </Array>
          </mxGeometry>
        </mxCell>
        <mxCell id="TSRgYdOGHJH9xsKmJ_30-12" value="" style="endArrow=none;dashed=1;html=1;rounded=0;entryX=0.325;entryY=1.067;entryDx=0;entryDy=0;entryPerimeter=0;exitX=0.5;exitY=0;exitDx=0;exitDy=0;" edge="1" parent="1" source="TSRgYdOGHJH9xsKmJ_30-8" target="TSRgYdOGHJH9xsKmJ_30-3">
          <mxGeometry width="50" height="50" relative="1" as="geometry">
            <mxPoint x="400" y="300" as="sourcePoint" />
            <mxPoint x="450" y="250" as="targetPoint" />
          </mxGeometry>
        </mxCell>
        <mxCell id="TSRgYdOGHJH9xsKmJ_30-13" value="1" style="text;html=1;strokeColor=none;fillColor=none;align=center;verticalAlign=middle;whiteSpace=wrap;rounded=0;" vertex="1" parent="1">
          <mxGeometry x="230" y="260" width="30" height="30" as="geometry" />
        </mxCell>
        <mxCell id="TSRgYdOGHJH9xsKmJ_30-14" value="choose(2,1)" style="rounded=0;whiteSpace=wrap;html=1;" vertex="1" parent="1">
          <mxGeometry x="495" y="280" width="120" height="60" as="geometry" />
        </mxCell>
        <mxCell id="TSRgYdOGHJH9xsKmJ_30-15" value="" style="endArrow=classic;html=1;rounded=0;entryX=0;entryY=0.5;entryDx=0;entryDy=0;exitX=0.75;exitY=1;exitDx=0;exitDy=0;" edge="1" parent="1" target="TSRgYdOGHJH9xsKmJ_30-14" source="TSRgYdOGHJH9xsKmJ_30-5">
          <mxGeometry width="50" height="50" relative="1" as="geometry">
            <mxPoint x="400" y="260" as="sourcePoint" />
            <mxPoint x="410" y="310" as="targetPoint" />
            <Array as="points">
              <mxPoint x="455" y="310" />
            </Array>
          </mxGeometry>
        </mxCell>
        <mxCell id="TSRgYdOGHJH9xsKmJ_30-16" value="n=2, k=1" style="text;html=1;strokeColor=none;fillColor=none;align=center;verticalAlign=middle;whiteSpace=wrap;rounded=0;" vertex="1" parent="1">
          <mxGeometry x="430" y="310" width="60" height="30" as="geometry" />
        </mxCell>
        <mxCell id="TSRgYdOGHJH9xsKmJ_30-17" value="choose(1,0)" style="rounded=0;whiteSpace=wrap;html=1;" vertex="1" parent="1">
          <mxGeometry x="660" y="360" width="120" height="60" as="geometry" />
        </mxCell>
        <mxCell id="TSRgYdOGHJH9xsKmJ_30-18" value="" style="endArrow=classic;html=1;rounded=0;entryX=0;entryY=0.5;entryDx=0;entryDy=0;exitX=0.75;exitY=1;exitDx=0;exitDy=0;" edge="1" parent="1" target="TSRgYdOGHJH9xsKmJ_30-17" source="TSRgYdOGHJH9xsKmJ_30-14">
          <mxGeometry width="50" height="50" relative="1" as="geometry">
            <mxPoint x="540" y="340" as="sourcePoint" />
            <mxPoint x="550" y="390" as="targetPoint" />
            <Array as="points">
              <mxPoint x="585" y="360" />
              <mxPoint x="585" y="390" />
            </Array>
          </mxGeometry>
        </mxCell>
        <mxCell id="TSRgYdOGHJH9xsKmJ_30-19" value="n=1, k=0" style="text;html=1;strokeColor=none;fillColor=none;align=center;verticalAlign=middle;whiteSpace=wrap;rounded=0;" vertex="1" parent="1">
          <mxGeometry x="590" y="390" width="60" height="30" as="geometry" />
        </mxCell>
        <mxCell id="TSRgYdOGHJH9xsKmJ_30-29" value="choose(2,2)" style="rounded=0;whiteSpace=wrap;html=1;" vertex="1" parent="1">
          <mxGeometry x="380" y="410" width="120" height="60" as="geometry" />
        </mxCell>
        <mxCell id="TSRgYdOGHJH9xsKmJ_30-30" value="n=2, k=2" style="text;html=1;strokeColor=none;fillColor=none;align=center;verticalAlign=middle;whiteSpace=wrap;rounded=0;" vertex="1" parent="1">
          <mxGeometry x="290" y="405" width="60" height="30" as="geometry" />
        </mxCell>
        <mxCell id="TSRgYdOGHJH9xsKmJ_30-31" value="" style="endArrow=classic;html=1;rounded=0;entryX=0;entryY=0.5;entryDx=0;entryDy=0;" edge="1" parent="1" target="TSRgYdOGHJH9xsKmJ_30-29">
          <mxGeometry width="50" height="50" relative="1" as="geometry">
            <mxPoint x="370" y="260" as="sourcePoint" />
            <mxPoint x="380" y="400" as="targetPoint" />
            <Array as="points">
              <mxPoint x="360" y="420" />
            </Array>
          </mxGeometry>
        </mxCell>
        <mxCell id="TSRgYdOGHJH9xsKmJ_30-32" value="" style="endArrow=none;dashed=1;html=1;rounded=0;entryX=0.25;entryY=1;entryDx=0;entryDy=0;exitX=0.5;exitY=0;exitDx=0;exitDy=0;" edge="1" parent="1" source="TSRgYdOGHJH9xsKmJ_30-29" target="TSRgYdOGHJH9xsKmJ_30-5">
          <mxGeometry width="50" height="50" relative="1" as="geometry">
            <mxPoint x="570" y="380" as="sourcePoint" />
            <mxPoint x="389" y="264.02" as="targetPoint" />
          </mxGeometry>
        </mxCell>
        <mxCell id="TSRgYdOGHJH9xsKmJ_30-33" value="1" style="text;html=1;strokeColor=none;fillColor=none;align=center;verticalAlign=middle;whiteSpace=wrap;rounded=0;" vertex="1" parent="1">
          <mxGeometry x="400" y="340" width="30" height="30" as="geometry" />
        </mxCell>
        <mxCell id="TSRgYdOGHJH9xsKmJ_30-36" value="choose(1,1)" style="rounded=0;whiteSpace=wrap;html=1;" vertex="1" parent="1">
          <mxGeometry x="540" y="470" width="120" height="60" as="geometry" />
        </mxCell>
        <mxCell id="TSRgYdOGHJH9xsKmJ_30-37" value="n=1, k=1" style="text;html=1;strokeColor=none;fillColor=none;align=center;verticalAlign=middle;whiteSpace=wrap;rounded=0;" vertex="1" parent="1">
          <mxGeometry x="460" y="500" width="60" height="30" as="geometry" />
        </mxCell>
        <mxCell id="TSRgYdOGHJH9xsKmJ_30-38" value="" style="endArrow=classic;html=1;rounded=0;exitX=0.75;exitY=1;exitDx=0;exitDy=0;entryX=0;entryY=0.5;entryDx=0;entryDy=0;" edge="1" parent="1" target="TSRgYdOGHJH9xsKmJ_30-36">
          <mxGeometry width="50" height="50" relative="1" as="geometry">
            <mxPoint x="520" y="340" as="sourcePoint" />
            <mxPoint x="530" y="480" as="targetPoint" />
            <Array as="points">
              <mxPoint x="510" y="500" />
            </Array>
          </mxGeometry>
        </mxCell>
        <mxCell id="TSRgYdOGHJH9xsKmJ_30-39" value="" style="endArrow=none;dashed=1;html=1;rounded=0;exitX=0.5;exitY=0;exitDx=0;exitDy=0;" edge="1" parent="1" source="TSRgYdOGHJH9xsKmJ_30-36">
          <mxGeometry width="50" height="50" relative="1" as="geometry">
            <mxPoint x="720" y="460" as="sourcePoint" />
            <mxPoint x="550" y="340" as="targetPoint" />
          </mxGeometry>
        </mxCell>
        <mxCell id="TSRgYdOGHJH9xsKmJ_30-40" value="1" style="text;html=1;strokeColor=none;fillColor=none;align=center;verticalAlign=middle;whiteSpace=wrap;rounded=0;" vertex="1" parent="1">
          <mxGeometry x="550" y="420" width="30" height="30" as="geometry" />
        </mxCell>
        <mxCell id="TSRgYdOGHJH9xsKmJ_30-42" value="" style="endArrow=none;dashed=1;html=1;rounded=0;" edge="1" parent="1">
          <mxGeometry width="50" height="50" relative="1" as="geometry">
            <mxPoint x="720" y="360" as="sourcePoint" />
            <mxPoint x="620" y="320" as="targetPoint" />
            <Array as="points">
              <mxPoint x="720" y="320" />
            </Array>
          </mxGeometry>
        </mxCell>
        <mxCell id="TSRgYdOGHJH9xsKmJ_30-44" value="" style="endArrow=none;dashed=1;html=1;rounded=0;entryX=1;entryY=0.75;entryDx=0;entryDy=0;" edge="1" parent="1" target="TSRgYdOGHJH9xsKmJ_30-5">
          <mxGeometry width="50" height="50" relative="1" as="geometry">
            <mxPoint x="580" y="280" as="sourcePoint" />
            <mxPoint x="480" y="240" as="targetPoint" />
            <Array as="points">
              <mxPoint x="580" y="240" />
            </Array>
          </mxGeometry>
        </mxCell>
        <mxCell id="TSRgYdOGHJH9xsKmJ_30-45" value="" style="endArrow=none;dashed=1;html=1;rounded=0;" edge="1" parent="1">
          <mxGeometry width="50" height="50" relative="1" as="geometry">
            <mxPoint x="400" y="200" as="sourcePoint" />
            <mxPoint x="300" y="160" as="targetPoint" />
            <Array as="points">
              <mxPoint x="400" y="160" />
            </Array>
          </mxGeometry>
        </mxCell>
        <mxCell id="TSRgYdOGHJH9xsKmJ_30-46" value="1" style="text;html=1;strokeColor=none;fillColor=none;align=center;verticalAlign=middle;whiteSpace=wrap;rounded=0;" vertex="1" parent="1">
          <mxGeometry x="705" y="290" width="30" height="30" as="geometry" />
        </mxCell>
        <mxCell id="TSRgYdOGHJH9xsKmJ_30-47" value="2" style="text;html=1;strokeColor=none;fillColor=none;align=center;verticalAlign=middle;whiteSpace=wrap;rounded=0;" vertex="1" parent="1">
          <mxGeometry x="550" y="210" width="30" height="30" as="geometry" />
        </mxCell>
        <mxCell id="TSRgYdOGHJH9xsKmJ_30-48" value="3" style="text;html=1;strokeColor=none;fillColor=none;align=center;verticalAlign=middle;whiteSpace=wrap;rounded=0;" vertex="1" parent="1">
          <mxGeometry x="370" y="120" width="30" height="30" as="geometry" />
        </mxCell>
        <mxCell id="TSRgYdOGHJH9xsKmJ_30-50" value="4" style="text;html=1;strokeColor=none;fillColor=none;align=center;verticalAlign=middle;whiteSpace=wrap;rounded=0;" vertex="1" parent="1">
          <mxGeometry x="260" y="50" width="30" height="30" as="geometry" />
        </mxCell>
        <mxCell id="TSRgYdOGHJH9xsKmJ_30-51" value="" style="endArrow=none;dashed=1;html=1;rounded=0;" edge="1" parent="1">
          <mxGeometry width="50" height="50" relative="1" as="geometry">
            <mxPoint x="265" y="120" as="sourcePoint" />
            <mxPoint x="200" y="80" as="targetPoint" />
            <Array as="points">
              <mxPoint x="265" y="80" />
            </Array>
          </mxGeometry>
        </mxCell>
      </root>
    </mxGraphModel>
  </diagram>
</mxfile>
